<?xml version="1.0" standalone="no"?>
<!DOCTYPE svg PUBLIC "-//W3C//DTD SVG 20010904//EN"
 "http://www.w3.org/TR/2001/REC-SVG-20010904/DTD/svg10.dtd">
<svg version="1.0" xmlns="http://www.w3.org/2000/svg"
 width="500.000000pt" height="500.000000pt" viewBox="0 0 500.000000 500.000000"
 preserveAspectRatio="xMidYMid meet">
<metadata>
Created by potrace 1.14, written by Peter Selinger 2001-2017
</metadata>
<g transform="translate(0.000000,500.000000) scale(0.100000,-0.100000)"
fill="#000000" stroke="none">
<path d="M2065 4760 c-4 -6 -1 -17 5 -25 7 -8 9 -15 6 -15 -4 0 -3 -8 3 -17 6
-11 6 -24 -1 -36 -7 -14 -7 -17 1 -13 8 5 8 0 0 -17 -10 -21 -15 -24 -39 -17
-40 12 -204 4 -208 -9 -2 -6 -7 -9 -11 -7 -15 10 -182 -53 -256 -96 -60 -34
-187 -102 -235 -125 -30 -15 -64 -38 -75 -51 -11 -14 -65 -71 -120 -126 -55
-56 -113 -121 -130 -146 -16 -25 -33 -47 -36 -50 -13 -10 -95 -176 -134 -268
-36 -87 -86 -172 -107 -180 -14 -6 -38 -33 -38 -42 0 -5 15 -16 34 -25 31 -15
41 -31 52 -82 1 -6 13 -25 25 -43 21 -28 24 -41 20 -103 -6 -119 -4 -318 4
-392 16 -164 70 -316 119 -335 23 -9 48 -35 67 -72 6 -13 16 -26 21 -29 5 -3
11 -26 12 -50 8 -146 117 -279 227 -279 38 0 50 -5 72 -30 15 -16 27 -32 27
-35 0 -10 115 -135 125 -135 3 0 18 -13 33 -30 16 -16 32 -30 35 -30 4 0 31
-16 61 -35 30 -19 57 -35 60 -35 3 0 17 -5 33 -12 15 -6 30 -12 33 -13 3 -1
12 -4 20 -8 34 -13 162 -37 199 -37 44 0 58 -23 21 -35 -11 -3 -20 -11 -20
-16 0 -5 -4 -9 -10 -9 -13 0 -77 -43 -129 -88 -56 -47 -57 -48 -111 -112 -25
-29 -54 -62 -65 -74 -29 -31 -116 -87 -126 -80 -5 3 -9 1 -9 -4 0 -5 -12 -15
-27 -23 -16 -7 -44 -30 -64 -50 -34 -35 -99 -124 -99 -135 0 -3 -9 -18 -20
-34 -11 -15 -17 -30 -13 -34 3 -3 1 -6 -5 -6 -7 0 -12 -5 -12 -12 0 -15 -51
-119 -70 -141 -8 -10 -14 -20 -13 -22 1 -2 -12 -19 -30 -37 -55 -58 -105 -128
-92 -128 5 0 0 -9 -11 -21 -19 -21 -19 -21 11 -45 17 -13 33 -24 38 -24 14 0
119 -100 202 -191 80 -88 167 -127 320 -143 17 -2 44 -6 60 -9 17 -4 46 -9 65
-12 19 -3 43 -8 52 -11 32 -10 134 -21 254 -27 39 -2 76 -7 82 -11 6 -3 13 -2
17 4 4 6 11 7 17 4 5 -4 54 -8 107 -10 100 -4 204 -11 281 -19 58 -6 333 -7
385 -1 76 8 166 21 205 30 14 4 40 9 58 12 19 3 54 12 79 19 46 14 152 14 271
0 70 -8 96 -1 180 52 29 18 55 33 58 33 3 0 20 16 37 35 18 19 39 35 47 37 8
2 21 11 28 21 7 9 19 17 25 17 7 0 37 23 66 50 30 28 60 49 67 46 24 -9 24 26
-1 58 -14 18 -25 38 -25 43 0 6 -7 14 -16 17 -8 3 -12 10 -9 16 3 5 2 10 -3
10 -5 0 -29 29 -53 65 -23 36 -46 65 -51 65 -4 0 -8 5 -8 11 0 9 -56 87 -72
99 -3 3 -8 12 -10 19 -3 13 -18 36 -43 65 -5 6 -16 23 -24 39 -8 15 -18 27
-23 27 -4 0 -8 7 -8 15 0 8 -5 15 -12 15 -6 0 -9 3 -5 6 3 4 -19 27 -50 53
-31 25 -67 56 -80 68 -13 12 -23 20 -23 17 0 -3 -19 9 -42 27 -55 42 -218 206
-218 219 0 5 -7 10 -15 10 -8 0 -15 4 -15 8 0 5 -14 22 -31 38 -17 16 -40 39
-52 51 -11 13 -24 23 -28 23 -5 0 -20 11 -35 25 -15 14 -39 31 -53 38 -13 7
-26 17 -28 22 -1 6 50 23 115 39 64 15 127 35 140 42 12 8 22 12 22 9 0 -10
102 48 159 90 62 46 111 92 111 105 0 5 9 14 20 20 11 6 20 17 20 25 0 8 5 15
10 15 6 0 10 6 10 14 0 7 7 19 15 26 9 7 14 19 11 26 -4 10 31 32 42 25 10 -6
102 61 102 75 0 4 7 15 15 24 8 9 20 40 28 69 13 50 11 83 -8 162 -6 24 -1 31
49 64 31 20 56 41 56 46 0 5 5 9 11 9 15 0 99 91 99 108 0 6 5 12 10 12 6 0
10 6 10 14 0 8 12 27 28 43 26 28 30 29 142 32 109 2 129 8 130 34 0 5 -53 7
-117 6 -112 -3 -118 -3 -117 16 2 24 13 83 20 108 8 26 14 119 15 222 0 88
-29 268 -54 330 -13 34 -17 48 -24 92 -5 34 -4 34 107 46 8 1 21 8 28 15 7 6
23 12 34 12 14 0 18 5 14 16 -3 9 -6 18 -6 20 0 2 -6 4 -14 4 -21 0 -114 77
-135 111 -10 16 -21 26 -24 22 -4 -3 -7 4 -7 17 0 13 -3 20 -6 17 -4 -4 -20
14 -36 39 -15 25 -33 51 -38 57 -6 7 -36 50 -67 97 -30 47 -64 94 -74 106 -11
11 -19 26 -19 33 0 7 -4 10 -9 6 -5 -3 -12 3 -15 12 -7 22 -116 137 -171 181
-119 95 -162 123 -257 169 -209 103 -349 149 -543 177 -88 13 -270 14 -330 2
-96 -19 -137 -32 -195 -58 -36 -17 -82 -32 -103 -34 -37 -3 -37 -2 -34 29 4
33 -13 60 -29 49 -5 -4 -11 -23 -13 -42 -3 -41 -1 -37 -26 -42 -17 -2 -20 3
-21 37 -3 73 -37 121 -59 85z m-840 -2593 c17 -9 26 -16 22 -17 -16 0 -63 29
-82 51 l-20 24 25 -21 c14 -12 39 -29 55 -37z m2545 19 c0 -2 -8 -10 -17 -17
-16 -13 -17 -12 -4 4 13 16 21 21 21 13z m-500 -384 c0 -5 -12 -14 -27 -21
l-28 -12 25 21 c29 22 30 23 30 12z m37 2 c-3 -3 -12 -4 -19 -1 -8 3 -5 6 6 6
11 1 17 -2 13 -5z m-297 -164 c3 -3 21 -14 40 -24 50 -28 179 -139 220 -190
14 -18 14 -19 -9 -5 -14 8 -50 37 -80 66 -84 77 -115 103 -126 103 -5 0 -26
14 -45 30 -19 17 -28 29 -20 28 8 -2 17 -5 20 -8z m536 -467 c10 -10 35 -30
54 -44 55 -42 73 -60 111 -114 48 -67 52 -75 40 -75 -6 0 -11 6 -11 13 0 7
-16 31 -35 53 -19 21 -35 42 -35 46 0 4 -25 22 -55 39 -30 17 -55 35 -55 40 0
6 -12 21 -26 34 -15 14 -23 25 -17 25 5 0 18 -8 29 -17z"/>
<path d="M4691 3091 c-6 -11 -12 -33 -12 -48 -2 -61 -72 -183 -105 -183 -8 0
-14 -4 -14 -9 0 -5 -13 -12 -29 -16 -16 -3 -31 -14 -34 -25 -6 -24 0 -30 33
-30 35 0 93 -45 120 -93 24 -42 21 -103 -5 -113 -7 -3 -12 -13 -11 -21 2 -12
15 -17 47 -18 41 -2 45 0 61 34 25 51 52 84 146 177 l84 82 -30 21 c-17 11
-34 21 -40 21 -16 0 -116 116 -133 153 -17 39 -45 81 -56 84 -7 3 -16 -5 -22
-16z"/>
</g>
</svg>
